<svg xmlns="http://www.w3.org/2000/svg" version="1.1" xmlns:xlink="http://www.w3.org/1999/xlink" xmlns:svgjs="http://svgjs.dev/svgjs" width="1000" height="1000" viewBox="0 0 1000 1000"><rect width="1000" height="1000" fill="#000000"></rect><g transform="matrix(0.7,0,0,0.7,149.57575763560476,413.7745503552839)"><svg viewBox="0 0 396 98" data-background-color="#ffffff" preserveAspectRatio="xMidYMid meet" height="247" width="1000" xmlns="http://www.w3.org/2000/svg" xmlns:xlink="http://www.w3.org/1999/xlink"><g id="tight-bounds" transform="matrix(1,0,0,1,0.24000003385646096,-0.12727550501921314)"><svg viewBox="0 0 395.52 98.25455101003844" height="98.25455101003844" width="395.52"><g><svg viewBox="0 0 510.7946208773601 126.89091862016541" height="98.25455101003844" width="395.52"><g transform="matrix(1,0,0,1,115.27462087736009,17.537022761542396)"><svg viewBox="0 0 395.52 91.81687309708062" height="91.81687309708062" width="395.52"><g><svg viewBox="0 0 395.52 91.81687309708062" height="91.81687309708062" width="395.52"><g><svg viewBox="0 0 395.52 56.733795251070454" height="56.733795251070454" width="395.52"><g transform="matrix(1,0,0,1,0,0)"><svg width="395.52" viewBox="2.3399999141693115 -35.5 250.87001037597656 35.9900016784668" height="56.733795251070454" data-palette-color="#7a26c1"><g class="undefined-text-0" data-fill-palette-color="primary" id="text-0"><path d="M37.33-10.3L37.33-10.3Q37.33-8.42 36.85-6.92 36.38-5.42 35.6-4.27 34.81-3.13 33.76-2.32 32.71-1.51 31.59-1 30.47-0.49 29.31-0.24 28.15 0 27.12 0L27.12 0 2.64 0 2.64-6.35 27.12-6.35Q28.96-6.35 29.97-7.42 30.98-8.5 30.98-10.3L30.98-10.3Q30.98-11.18 30.71-11.91 30.44-12.65 29.94-13.18 29.44-13.72 28.72-14.01 28-14.31 27.12-14.31L27.12-14.31 12.52-14.31Q10.99-14.31 9.2-14.86 7.42-15.41 5.9-16.63 4.37-17.85 3.36-19.82 2.34-21.8 2.34-24.66L2.34-24.66Q2.34-27.51 3.36-29.48 4.37-31.45 5.9-32.68 7.42-33.91 9.2-34.46 10.99-35.01 12.52-35.01L12.52-35.01 34.13-35.01 34.13-28.66 12.52-28.66Q10.72-28.66 9.7-27.56 8.69-26.46 8.69-24.66L8.69-24.66Q8.69-22.83 9.7-21.77 10.72-20.7 12.52-20.7L12.52-20.7 27.12-20.7 27.17-20.7Q28.2-20.68 29.35-20.42 30.49-20.17 31.63-19.63 32.76-19.09 33.79-18.27 34.81-17.46 35.61-16.31 36.4-15.16 36.87-13.67 37.33-12.18 37.33-10.3ZM79.34-20.85L79.34-14.16Q79.34-10.96 78.24-8.28 77.15-5.59 75.19-3.64 73.24-1.68 70.57-0.6 67.89 0.49 64.74 0.49L64.74 0.49 56.15 0.49Q53 0.49 50.31-0.6 47.63-1.68 45.68-3.64 43.72-5.59 42.61-8.28 41.5-10.96 41.5-14.16L41.5-14.16 41.5-20.85Q41.5-24.02 42.61-26.72 43.72-29.42 45.68-31.36 47.63-33.3 50.31-34.4 53-35.5 56.15-35.5L56.15-35.5 64.74-35.5Q67.89-35.5 70.57-34.4 73.24-33.3 75.19-31.36 77.15-29.42 78.24-26.72 79.34-24.02 79.34-20.85L79.34-20.85ZM73-14.16L73-20.85Q73-22.73 72.4-24.26 71.8-25.78 70.71-26.87 69.63-27.95 68.1-28.55 66.57-29.15 64.74-29.15L64.74-29.15 56.15-29.15Q54.29-29.15 52.77-28.55 51.24-27.95 50.14-26.87 49.05-25.78 48.45-24.26 47.85-22.73 47.85-20.85L47.85-20.85 47.85-14.16Q47.85-12.28 48.45-10.75 49.05-9.23 50.14-8.14 51.24-7.06 52.77-6.46 54.29-5.86 56.15-5.86L56.15-5.86 64.69-5.86Q66.55-5.86 68.08-6.46 69.6-7.06 70.7-8.14 71.8-9.23 72.4-10.75 73-12.28 73-14.16L73-14.16ZM120.6-35.01L120.6-2.71Q120.6-2.03 120.34-1.44 120.09-0.85 119.66-0.43 119.23 0 118.65 0.24 118.06 0.49 117.4 0.49L117.4 0.49Q116.82 0.49 116.22 0.27 115.62 0.05 115.16-0.44L115.16-0.44 91.96-24.66 91.96 0 85.62 0 85.62-32.3Q85.62-33.28 86.16-34.07 86.71-34.86 87.57-35.25L87.57-35.25Q88.47-35.62 89.42-35.44 90.38-35.25 91.06-34.55L91.06-34.55 114.25-10.35 114.25-35.01 120.6-35.01ZM162.52-17.5L162.52-3.2Q162.52-2.51 162.27-1.93 162.03-1.34 161.6-0.92 161.17-0.49 160.59-0.24 160 0 159.32 0L159.32 0 136.42 0Q135.54 0 134.53-0.21 133.51-0.42 132.52-0.85 131.54-1.29 130.63-1.99 129.73-2.69 129.03-3.67 128.34-4.66 127.92-5.97 127.51-7.28 127.51-8.91L127.51-8.91 127.51-26.1Q127.51-26.98 127.71-27.99 127.92-29 128.36-29.99 128.8-30.98 129.51-31.88 130.22-32.79 131.21-33.48 132.19-34.18 133.49-34.59 134.78-35.01 136.42-35.01L136.42-35.01 162.22-35.01 162.22-28.66 136.42-28.66Q135.17-28.66 134.51-28 133.85-27.34 133.85-26.05L133.85-26.05 133.85-8.91Q133.85-7.69 134.53-7.02 135.2-6.35 136.42-6.35L136.42-6.35 156.17-6.35 156.17-14.31 139.27-14.31 139.27-20.7 159.32-20.7Q160-20.7 160.59-20.45 161.17-20.19 161.6-19.75 162.03-19.31 162.27-18.74 162.52-18.16 162.52-17.5L162.52-17.5ZM175.53-35.01L175.53 0 169.18 0 169.18-35.01 175.53-35.01ZM211.9-20.7L211.9-14.31 191.83-14.31 191.83-20.7 211.9-20.7ZM214.73-35.01L214.73-28.66 189.29-28.66 189.29 0 182.95 0 182.95-31.81Q182.95-32.47 183.19-33.06 183.43-33.64 183.86-34.08 184.29-34.52 184.88-34.77 185.46-35.01 186.14-35.01L186.14-35.01 214.73-35.01ZM253.21-35.01L253.21-23.29Q253.21-21.12 252.66-19.41 252.11-17.7 251.21-16.39 250.3-15.09 249.09-14.16 247.89-13.23 246.59-12.63 245.3-12.04 243.97-11.77 242.64-11.5 241.46-11.5L241.46-11.5 238.9-11.5 238.9 0 232.5 0 232.5-11.5 229.97-11.5Q228.79-11.5 227.46-11.77 226.13-12.04 224.83-12.63 223.52-13.23 222.32-14.16 221.13-15.09 220.21-16.39 219.3-17.7 218.75-19.42 218.2-21.14 218.2-23.29L218.2-23.29 218.2-35.01 224.55-35.01 224.55-23.29Q224.55-22.05 224.94-21.06 225.33-20.07 226.03-19.36 226.74-18.65 227.76-18.27 228.77-17.9 230.01-17.9L230.01-17.9 241.46-17.9Q242.37-18.04 243.32-18.27 244.27-18.51 245.05-19.07 245.83-19.63 246.35-20.63 246.86-21.63 246.86-23.29L246.86-23.29 246.86-35.01 253.21-35.01Z" fill="#ffffff" data-fill-palette-color="primary"></path></g></svg></g></svg></g><g transform="matrix(1,0,0,1,0,70.12728269876216)"><svg viewBox="0 0 232.20979200000002 21.689590398318447" height="21.689590398318447" width="232.20979200000002"><g transform="matrix(1,0,0,1,0,0)"><svg width="232.20979200000002" viewBox="3.5 -35.04999923706055 380.55999755859375 35.54999923706055" height="21.689590398318447" data-palette-color="#7a26c1"><path d="M15.65-26.3L19.75-10.85 20.05-10.85 24.15-26.3Q25.45-31.3 28.15-33.15 30.85-35 36.3-35L36.3-35 36.3 0 31.6 0 31.6-29.7Q30.3-29.15 29.63-28.15 28.95-27.15 28.35-25.15L28.35-25.15 22.1-3.7 17.7-3.7 11.4-25.15Q10.8-27.2 10.15-28.18 9.5-29.15 8.2-29.7L8.2-29.7 8.2 0 3.5 0 3.5-35Q8.95-35 11.63-33.13 14.3-31.25 15.65-26.3L15.65-26.3ZM62.7-24L62.7 0 54.05 0Q48.5 0 46.1-1.65L46.1-1.65Q43.95-3.1 43.37-5.13 42.8-7.15 42.8-10.45L42.8-10.45 42.8-24 47.2-24 47.2-10.5Q47.2-9.6 47.25-8.97 47.3-8.35 47.6-7.38 47.9-6.4 48.45-5.78 49-5.15 50.05-4.67 51.1-4.2 52.6-4.2L52.6-4.2 58.3-4.2 58.3-24 62.7-24ZM76.75-24L85.6-24 85.6-19.8 76.75-19.8Q75.3-19.8 74.25-19.25 73.2-18.7 73.2-17.7L73.2-17.7Q73.2-17.1 73.45-16.63 73.7-16.15 74.02-15.85 74.35-15.55 75.02-15.23 75.7-14.9 76.07-14.78 76.45-14.65 79.25-13.75 82.05-12.85 83.4-12.25 84.75-11.65 85.47-10.63 86.2-9.6 86.4-8.63 86.6-7.65 86.6-6.7L86.6-6.7Q86.6 0 77.4 0L77.4 0 68.75 0 68.75-4.2 77.4-4.2Q82.1-4.2 82.1-6.7L82.1-6.7Q82.1-7.9 80.72-8.7 79.35-9.5 77.37-10.05 75.4-10.6 73.42-11.33 71.45-12.05 70.07-13.68 68.7-15.3 68.7-17.7L68.7-17.7Q68.7-20.75 71.05-22.38 73.4-24 76.75-24L76.75-24ZM98.09-24L98.09 0 93.69 0 93.69-19.8 89.59-19.8 91.59-24 98.09-24ZM93.49-29L93.49-29Q92.84-29.85 92.84-30.85 92.84-31.85 93.49-32.68 94.14-33.5 95.49-33.5 96.84-33.5 97.49-32.68 98.14-31.85 98.14-30.85 98.14-29.85 97.49-29.03 96.84-28.2 95.49-28.2 94.14-28.2 93.49-29ZM121.19-5.25L121.19-5.25 124.19-2.3Q120.74 0.5 116.29 0.5L116.29 0.5Q110.74 0.5 107.39-3.08 104.04-6.65 104.04-12L104.04-12Q104.04-17.25 107.57-20.88 111.09-24.5 116.29-24.5L116.29-24.5Q120.74-24.5 124.19-21.7L124.19-21.7 121.24-18.7Q119.14-20.3 116.29-20.3L116.29-20.3Q112.84-20.3 110.82-18.03 108.79-15.75 108.79-12 108.79-8.25 110.82-5.98 112.84-3.7 116.29-3.7L116.29-3.7Q119.19-3.7 121.19-5.25ZM142.84-20.85L142.84-20.85Q146.34-24.5 151.59-24.5L151.59-24.5Q154.14-24.5 156.36-23.53 158.59-22.55 160.26-20.85 161.94-19.15 162.89-16.88 163.84-14.6 163.84-12L163.84-12Q163.84-9.4 162.91-7.13 161.99-4.85 160.34-3.15 158.69-1.45 156.44-0.48 154.19 0.5 151.59 0.5L151.59 0.5Q148.94 0.5 146.71-0.48 144.49-1.45 142.84-3.15 141.19-4.85 140.26-7.13 139.34-9.4 139.34-12L139.34-12Q139.34-17.3 142.84-20.85ZM151.59-20.3L151.59-20.3Q148.09-20.3 145.96-18 143.84-15.7 143.84-12 143.84-8.3 145.96-6 148.09-3.7 151.59-3.7L151.59-3.7Q155.14-3.7 157.24-6.03 159.34-8.35 159.34-12 159.34-15.65 157.24-17.98 155.14-20.3 151.59-20.3ZM180.88-24L180.88-19.8 175.13-19.8 175.13 0 170.63 0 170.63-19.8 167.23-19.8 169.23-24 170.63-24Q170.63-29.1 174.08-32.08 177.53-35.05 182.88-35.05L182.88-35.05 182.88-30.85Q175.13-30.85 175.13-24L175.13-24 180.88-24ZM198.48-19.8L194.03-19.8 202.98-28.75 202.98-24 209.73-24 209.73-19.8 202.98-19.8 202.98-9.5Q202.98-7.75 203.55-6.6 204.13-5.45 205.23-4.98 206.33-4.5 207.3-4.35 208.28-4.2 209.73-4.2L209.73-4.2 209.73 0Q203.98 0 201.23-2.2 198.48-4.4 198.48-9.5L198.48-9.5 198.48-19.8ZM214.48-35L218.88-35 218.88-24 223.13-24Q228.68-24 231.08-22.35L231.08-22.35Q233.23-20.9 233.8-18.88 234.38-16.85 234.38-13.55L234.38-13.55 234.38 0 229.98 0 229.98-13.5Q229.98-14.4 229.93-15.03 229.88-15.65 229.58-16.63 229.28-17.6 228.73-18.23 228.18-18.85 227.13-19.33 226.08-19.8 224.58-19.8L224.58-19.8 218.88-19.8 218.88 0 214.48 0 214.48-35ZM252.12-24.5L252.12-24.5Q260.62-24.15 260.62-17.45L260.62-17.45Q260.62-9.1 249.67-9.1L249.67-9.1 247.62-9.1 247.62-12.95 250.02-12.95Q253.37-12.95 254.67-13.98 255.97-15 255.97-17.4L255.97-17.4Q255.97-18.95 254.82-19.73 253.67-20.5 251.87-20.5L251.87-20.5Q248.32-20.5 246.3-18 244.27-15.5 244.27-12L244.27-12Q244.27-8.3 246.45-6 248.62-3.7 252.12-3.7L252.12-3.7Q255.27-3.7 257.27-5.25L257.27-5.25 260.27-2.3Q256.82 0.5 252.12 0.5L252.12 0.5Q246.42 0.5 243.02-2.85 239.62-6.2 239.62-11.5L239.62-11.5Q239.62-17.4 242.97-21.05 246.32-24.7 252.12-24.5ZM277.27-35L281.67-35 281.67-24 285.92-24Q291.47-24 293.87-22.35L293.87-22.35Q296.02-20.9 296.59-18.88 297.17-16.85 297.17-13.55L297.17-13.55 297.17 0 292.77 0 292.77-13.5Q292.77-14.4 292.72-15.03 292.67-15.65 292.37-16.63 292.07-17.6 291.52-18.23 290.97-18.85 289.92-19.33 288.87-19.8 287.37-19.8L287.37-19.8 281.67-19.8 281.67 0 277.27 0 277.27-35ZM314.92-24.5L314.92-24.5Q323.42-24.15 323.42-17.45L323.42-17.45Q323.42-9.1 312.47-9.1L312.47-9.1 310.42-9.1 310.42-12.95 312.81-12.95Q316.17-12.95 317.47-13.98 318.77-15 318.77-17.4L318.77-17.4Q318.77-18.95 317.62-19.73 316.47-20.5 314.67-20.5L314.67-20.5Q311.12-20.5 309.09-18 307.06-15.5 307.06-12L307.06-12Q307.06-8.3 309.24-6 311.42-3.7 314.92-3.7L314.92-3.7Q318.06-3.7 320.06-5.25L320.06-5.25 323.06-2.3Q319.62 0.5 314.92 0.5L314.92 0.5Q309.22 0.5 305.81-2.85 302.42-6.2 302.42-11.5L302.42-11.5Q302.42-17.4 305.77-21.05 309.12-24.7 314.92-24.5ZM341.76-14.1L341.76-14.1 341.76-9.6Q339.86-11.05 337.11-11.05L337.11-11.05Q334.76-11.05 333.46-10.13 332.16-9.2 332.16-7.5L332.16-7.5Q332.16-4.2 337.06-4.2L337.06-4.2 343.66-4.2 343.66-13.75Q343.66-19.8 337.76-19.8L337.76-19.8 329.76-19.8 329.76-24 338.01-24Q342.86-24 345.46-21.6 348.06-19.2 348.06-14.7L348.06-14.7 348.06 0 336.91 0Q332.66 0 330.16-1.9 327.66-3.8 327.66-7.45 327.66-11.1 330.31-13 332.96-14.9 336.96-14.9L336.96-14.9Q339.21-14.9 341.76-14.1ZM357.21 0L352.81 0 352.81-13.65Q352.81-19.4 354.96-21.6L354.96-21.6Q356.01-22.7 357.51-23.25 359.01-23.8 360.13-23.9 361.26-24 363.21-24L363.21-24 367.61-24 367.61-19.8 362.31-19.8Q361.31-19.8 360.76-19.75 360.21-19.7 359.46-19.4 358.71-19.1 358.16-18.45L358.16-18.45Q357.21-17.25 357.21-13.65L357.21-13.65 357.21 0ZM372.81-19.8L368.36-19.8 377.31-28.75 377.31-24 384.06-24 384.06-19.8 377.31-19.8 377.31-9.5Q377.31-7.75 377.88-6.6 378.46-5.45 379.56-4.98 380.66-4.5 381.63-4.35 382.61-4.2 384.06-4.2L384.06-4.2 384.06 0Q378.31 0 375.56-2.2 372.81-4.4 372.81-9.5L372.81-9.5 372.81-19.8Z" opacity="1" transform="matrix(1,0,0,1,0,0)" fill="#ffffff" class="undefined-text-1" data-fill-palette-color="secondary" id="text-1"></path></svg></g></svg></g></svg></g></svg></g><g><svg viewBox="0 0 101.88113342966838 126.89091862016541" height="126.89091862016541" width="101.88113342966838"><g><svg xmlns="http://www.w3.org/2000/svg" xmlns:xlink="http://www.w3.org/1999/xlink" xml:space="preserve" version="1.1" style="shape-rendering:geometricPrecision;text-rendering:geometricPrecision;image-rendering:optimizeQuality;" viewBox="9.721771240234375 0 80.27822875976562 99.98493194580078" x="0" y="0" fill-rule="evenodd" clip-rule="evenodd" height="126.89091862016541" width="101.88113342966838" class="icon-icon-0" data-fill-palette-color="accent" id="icon-0"><g fill="#a437db" data-fill-palette-color="accent"><path class="" d="M86 24c-3-7-17-7-27-17 0-4 0-7 0-7l-11 0 0 67c-5-2-11-2-18 0-13 3-22 13-20 22 3 9 15 13 29 10 11-3 20-12 20-20l0 0c0 0 0-51 0-55 24 0 24 24 27 24 3 0 4-7 4-14-1-3-2-7-4-10z" fill="#ffffff" fill-rule="nonzero" data-fill-palette-color="accent"></path></g></svg></g></svg></g></svg></g><defs></defs></svg><rect width="395.52" height="98.25455101003844" fill="none" stroke="none" visibility="hidden"></rect></g></svg></g></svg>